<mxfile host="65bd71144e">
    <diagram id="ddDUZ0oviB58H6_pVTwg" name="Arquitetura em camadas">
        <mxGraphModel dx="968" dy="729" grid="1" gridSize="10" guides="1" tooltips="1" connect="1" arrows="1" fold="1" page="1" pageScale="1" pageWidth="850" pageHeight="1100" math="0" shadow="0">
            <root>
                <mxCell id="0"/>
                <mxCell id="1" parent="0"/>
                <mxCell id="2" value="ecommerce-node-api (back-end)" style="verticalAlign=top;align=left;spacingTop=8;spacingLeft=2;spacingRight=12;shape=cube;size=10;direction=south;fontStyle=4;html=1;strokeWidth=2;" vertex="1" parent="1">
                    <mxGeometry x="100" y="176" width="420" height="454" as="geometry"/>
                </mxCell>
                <mxCell id="4" value="ecommerce-web-app (front-end)" style="verticalAlign=top;align=left;spacingTop=8;spacingLeft=2;spacingRight=12;shape=cube;size=10;direction=south;fontStyle=4;html=1;strokeWidth=2;" vertex="1" parent="1">
                    <mxGeometry x="100" y="57" width="420" height="100" as="geometry"/>
                </mxCell>
                <mxCell id="5" value="Database (Relacional)" style="shape=cylinder3;whiteSpace=wrap;html=1;boundedLbl=1;backgroundOutline=1;size=15;strokeWidth=2;" vertex="1" parent="1">
                    <mxGeometry x="235" y="640" width="130" height="70" as="geometry"/>
                </mxCell>
                <mxCell id="6" value="" style="rounded=1;whiteSpace=wrap;html=1;strokeWidth=2;fillColor=#CC0000;fontColor=#ffffff;strokeColor=#701600;" vertex="1" parent="1">
                    <mxGeometry x="270" y="330" width="230" height="102" as="geometry"/>
                </mxCell>
                <mxCell id="16" style="edgeStyle=none;html=1;entryX=0.37;entryY=0.027;entryDx=0;entryDy=0;entryPerimeter=0;dashed=1;" edge="1" parent="1" source="8" target="6">
                    <mxGeometry relative="1" as="geometry"/>
                </mxCell>
                <mxCell id="8" value="" style="rounded=1;whiteSpace=wrap;html=1;strokeWidth=2;fillColor=#f0a30a;fontColor=#000000;strokeColor=#BD7000;" vertex="1" parent="1">
                    <mxGeometry x="110" y="220" width="390" height="70" as="geometry"/>
                </mxCell>
                <mxCell id="20" style="edgeStyle=none;html=1;entryX=0.282;entryY=1.006;entryDx=0;entryDy=0;entryPerimeter=0;dashed=1;" edge="1" parent="1" source="9" target="6">
                    <mxGeometry relative="1" as="geometry"/>
                </mxCell>
                <mxCell id="9" value="" style="rounded=1;whiteSpace=wrap;html=1;strokeWidth=2;fillColor=#60a917;fontColor=#ffffff;strokeColor=#2D7600;" vertex="1" parent="1">
                    <mxGeometry x="110" y="490" width="390" height="110" as="geometry"/>
                </mxCell>
                <mxCell id="10" value="" style="rounded=1;whiteSpace=wrap;html=1;strokeWidth=2;fillColor=#d80073;fontColor=#ffffff;strokeColor=#A50040;" vertex="1" parent="1">
                    <mxGeometry x="110" y="89" width="380" height="60" as="geometry"/>
                </mxCell>
                <mxCell id="14" value="Camada de Apresentação&lt;br&gt;" style="text;html=1;strokeColor=none;fillColor=none;align=center;verticalAlign=middle;whiteSpace=wrap;rounded=0;strokeWidth=2;" vertex="1" parent="1">
                    <mxGeometry x="108" y="89" width="150" height="30" as="geometry"/>
                </mxCell>
                <mxCell id="15" value="Camada de Aplicação" style="text;html=1;strokeColor=none;fillColor=none;align=center;verticalAlign=middle;whiteSpace=wrap;rounded=0;strokeWidth=2;" vertex="1" parent="1">
                    <mxGeometry x="110" y="220" width="120" height="30" as="geometry"/>
                </mxCell>
                <mxCell id="17" value="Camada de Domínio" style="text;html=1;strokeColor=none;fillColor=none;align=center;verticalAlign=middle;whiteSpace=wrap;rounded=0;strokeWidth=2;" vertex="1" parent="1">
                    <mxGeometry x="267" y="328" width="120" height="30" as="geometry"/>
                </mxCell>
                <mxCell id="24" style="edgeStyle=none;html=1;entryX=0.154;entryY=1;entryDx=0;entryDy=0;entryPerimeter=0;dashed=1;" edge="1" parent="1" source="18" target="8">
                    <mxGeometry relative="1" as="geometry"/>
                </mxCell>
                <mxCell id="18" value="Camada de Infraestrutura" style="text;html=1;strokeColor=none;fillColor=none;align=center;verticalAlign=middle;whiteSpace=wrap;rounded=0;strokeWidth=2;" vertex="1" parent="1">
                    <mxGeometry x="118" y="490" width="140" height="30" as="geometry"/>
                </mxCell>
                <mxCell id="25" value="&lt;font style=&quot;font-size: 6px;&quot;&gt;Módulo/Subdomínio&lt;/font&gt;" style="shape=umlFrame;whiteSpace=wrap;html=1;strokeColor=#701600;strokeWidth=2;fillColor=#CC0000;dashed=1;" vertex="1" parent="1">
                    <mxGeometry x="348" y="190" width="150" height="410" as="geometry"/>
                </mxCell>
                <mxCell id="26" value="entity" style="text;html=1;strokeColor=none;fillColor=none;align=center;verticalAlign=middle;whiteSpace=wrap;rounded=0;dashed=1;strokeWidth=2;fontSize=6;" vertex="1" parent="1">
                    <mxGeometry x="353" y="350" width="60" height="30" as="geometry"/>
                </mxCell>
                <mxCell id="27" value="exception&lt;span style=&quot;color: rgba(0, 0, 0, 0); font-family: monospace; font-size: 0px; text-align: start;&quot;&gt;%3CmxGraphModel%3E%3Croot%3E%3CmxCell%20id%3D%220%22%2F%3E%3CmxCell%20id%3D%221%22%20parent%3D%220%22%2F%3E%3CmxCell%20id%3D%222%22%20value%3D%22entity%22%20style%3D%22text%3Bhtml%3D1%3BstrokeColor%3Dnone%3BfillColor%3Dnone%3Balign%3Dcenter%3BverticalAlign%3Dmiddle%3BwhiteSpace%3Dwrap%3Brounded%3D0%3Bdashed%3D1%3BstrokeWidth%3D2%3BfontSize%3D6%3B%22%20vertex%3D%221%22%20parent%3D%221%22%3E%3CmxGeometry%20x%3D%22353%22%20y%3D%22350%22%20width%3D%2260%22%20height%3D%2230%22%20as%3D%22geometry%22%2F%3E%3C%2FmxCell%3E%3C%2Froot%3E%3C%2FmxGraphModel%3E&lt;/span&gt;" style="text;html=1;strokeColor=none;fillColor=none;align=center;verticalAlign=middle;whiteSpace=wrap;rounded=0;dashed=1;strokeWidth=2;fontSize=6;" vertex="1" parent="1">
                    <mxGeometry x="393" y="350" width="60" height="30" as="geometry"/>
                </mxCell>
                <mxCell id="28" value="types" style="text;html=1;strokeColor=none;fillColor=none;align=center;verticalAlign=middle;whiteSpace=wrap;rounded=0;dashed=1;strokeWidth=2;fontSize=6;" vertex="1" parent="1">
                    <mxGeometry x="355" y="380" width="60" height="30" as="geometry"/>
                </mxCell>
                <mxCell id="29" value="spec" style="text;html=1;align=center;verticalAlign=middle;whiteSpace=wrap;rounded=0;dashed=1;strokeWidth=2;fontSize=6;dashPattern=8 8;" vertex="1" parent="1">
                    <mxGeometry x="400" y="380" width="50" height="30" as="geometry"/>
                </mxCell>
                <mxCell id="30" value="metódo" style="text;html=1;strokeColor=none;fillColor=none;align=center;verticalAlign=middle;whiteSpace=wrap;rounded=0;dashed=1;strokeWidth=2;fontSize=6;" vertex="1" parent="1">
                    <mxGeometry x="348" y="500" width="60" height="30" as="geometry"/>
                </mxCell>
            </root>
        </mxGraphModel>
    </diagram>
</mxfile>